<?xml version="1.0" encoding="utf-8"?>
<svg height="192" version="1.1" width="239" xmlns="http://www.w3.org/2000/svg">

<path d="M0 0 C1.02776047 -0.00701431 2.05552094 -0.01402863 3.11442566 -0.02125549 C4.24128784 -0.01361176 5.36815002 -0.00596802 6.52915955 0.00190735 C7.71632065 -0.00174332 8.90348175 -0.00539398 10.12661743 -0.00915527 C13.38280266 -0.01587821 16.63861593 -0.00913887 19.89477086 0.00417686 C23.29979201 0.0154858 26.70479824 0.01138435 30.10983276 0.00942993 C35.82713233 0.0085469 41.54431334 0.01963023 47.26158142 0.03804016 C53.87644663 0.05921811 60.49113827 0.0627156 67.10603052 0.0564782 C73.46469677 0.05078888 79.82330174 0.05642443 86.18195915 0.06765175 C88.89046293 0.07230245 91.5989293 0.07316958 94.30743599 0.0710659 C98.08587357 0.07069676 101.86404329 0.08327291 105.6424408 0.0995636 C106.77132721 0.09708618 107.90021362 0.09460876 109.06330872 0.09205627 C110.08824936 0.09914108 111.11319 0.10622589 112.16918945 0.11352539 C113.06311936 0.11557826 113.95704927 0.11763113 114.87806797 0.11974621 C117.02110291 0.3742218 117.02110291 0.3742218 119.02110291 2.3742218 C119.21973634 5.16473272 119.29380142 7.85601228 119.27989197 10.6476593 C119.28339661 11.50305298 119.28690125 12.35844666 119.29051208 13.23976135 C119.29933767 16.07632995 119.29347735 18.91265053 119.28672791 21.7492218 C119.28807432 23.71455432 119.29001465 25.67988652 119.29252625 27.6452179 C119.29547863 31.76780869 119.29117619 35.89031293 119.28184509 40.01289368 C119.27045051 45.3060851 119.27700937 50.59907372 119.28899002 55.89225769 C119.29620553 59.95163002 119.29392211 64.010954 119.28873444 68.07032776 C119.28739708 70.02243575 119.28904863 71.97454808 119.29369354 73.926651 C119.29875371 76.65148095 119.29105578 79.37597916 119.27989197 82.1007843 C119.28394043 82.91331665 119.28798889 83.725849 119.29216003 84.56300354 C119.24963104 90.14569367 119.24963104 90.14569367 117.02110291 92.3742218 C114.57868958 92.61473083 114.57868958 92.61473083 111.46983337 92.60127258 C109.72825455 92.60104599 109.72825455 92.60104599 107.95149231 92.60081482 C106.69313568 92.59049225 105.43477905 92.58016968 104.13829041 92.5695343 C102.85374969 92.56670441 101.56920898 92.56387451 100.2457428 92.56095886 C96.82947524 92.55331989 93.41337754 92.53366933 89.99717712 92.5115509 C86.51168618 92.49109805 83.0261678 92.48195836 79.54063416 92.47187805 C72.7007206 92.45042355 65.8609199 92.41628452 59.02110291 92.3742218 C59.51610291 96.3342218 59.51610291 96.3342218 60.02110291 100.3742218 C60.70623962 100.45462708 61.39137634 100.53503235 62.09727478 100.61787415 C65.23920693 100.98966591 68.38013377 101.36938367 71.52110291 101.7492218 C72.59875916 101.87554993 73.67641541 102.00187805 74.78672791 102.1320343 C90.72227478 104.07539368 90.72227478 104.07539368 94.02110291 107.3742218 C94.02110291 109.0242218 94.02110291 110.6742218 94.02110291 112.3742218 C67.95110291 112.3742218 41.88110291 112.3742218 15.02110291 112.3742218 C15.02110291 107.3742218 15.02110291 107.3742218 16.45469666 105.6632843 C20.20489115 103.77962497 23.95249092 103.31677272 28.08360291 102.7492218 C28.92963074 102.62442444 29.77565857 102.49962708 30.64732361 102.37104797 C36.75277324 101.49133552 42.86399234 100.7754717 49.02110291 100.3742218 C49.35110291 97.7342218 49.68110291 95.0942218 50.02110291 92.3742218 C49.32397186 92.38088364 48.62684082 92.38754547 47.90858459 92.39440918 C41.34585083 92.45446536 34.7831935 92.50016801 28.22024727 92.52965832 C24.84596684 92.54532924 21.47191304 92.56659273 18.09776306 92.60054016 C14.22058543 92.6367954 10.34373119 92.65391908 6.46641541 92.66719055 C5.25180634 92.68267441 4.03719727 92.69815826 2.78578186 92.71411133 C1.66477081 92.71433792 0.54375977 92.71456451 -0.61122131 92.71479797 C-1.60161407 92.72145981 -2.59200684 92.72812164 -3.6124115 92.73498535 C-4.39335175 92.61593338 -5.17429199 92.49688141 -5.97889709 92.3742218 C-8.50253193 88.58876955 -8.26733063 85.57198142 -8.2535553 81.1867218 C-8.25866623 80.35229553 -8.26377716 79.51786926 -8.26904297 78.65815735 C-8.28295638 75.89677279 -8.28198108 73.13563727 -8.27967834 70.3742218 C-8.28356395 68.45755419 -8.28789833 66.54088743 -8.29266357 64.6242218 C-8.30012928 60.60596424 -8.2998317 56.58779454 -8.29457092 52.5695343 C-8.28877188 47.41428426 -8.3057161 42.25939297 -8.3289156 37.10420227 C-8.34362914 33.14601023 -8.34452796 29.1879051 -8.34140587 25.22969055 C-8.34192015 23.32864165 -8.34717784 21.42758801 -8.35721779 19.52656555 C-8.36952065 16.87137854 -8.3628281 14.21689707 -8.35121155 11.5617218 C-8.35885529 10.77305725 -8.36649902 9.9843927 -8.37437439 9.17182922 C-8.32284175 3.85712385 -8.32284175 3.85712385 -6.7666893 1.67226887 C-4.39482655 -0.04984933 -2.91918406 -0.00054754 0 0 Z " fill="#3F1233" transform="translate(87.97889709472656,56.62577819824219)"/>
<path d="M0 0 C1.02776047 -0.00701431 2.05552094 -0.01402863 3.11442566 -0.02125549 C4.24128784 -0.01361176 5.36815002 -0.00596802 6.52915955 0.00190735 C7.71632065 -0.00174332 8.90348175 -0.00539398 10.12661743 -0.00915527 C13.38280266 -0.01587821 16.63861593 -0.00913887 19.89477086 0.00417686 C23.29979201 0.0154858 26.70479824 0.01138435 30.10983276 0.00942993 C35.82713233 0.0085469 41.54431334 0.01963023 47.26158142 0.03804016 C53.87644663 0.05921811 60.49113827 0.0627156 67.10603052 0.0564782 C73.46469677 0.05078888 79.82330174 0.05642443 86.18195915 0.06765175 C88.89046293 0.07230245 91.5989293 0.07316958 94.30743599 0.0710659 C98.08587357 0.07069676 101.86404329 0.08327291 105.6424408 0.0995636 C106.77132721 0.09708618 107.90021362 0.09460876 109.06330872 0.09205627 C110.08824936 0.09914108 111.11319 0.10622589 112.16918945 0.11352539 C113.06311936 0.11557826 113.95704927 0.11763113 114.87806797 0.11974621 C117.02110291 0.3742218 117.02110291 0.3742218 119.02110291 2.3742218 C119.21973634 5.16473272 119.29380142 7.85601228 119.27989197 10.6476593 C119.28339661 11.50305298 119.28690125 12.35844666 119.29051208 13.23976135 C119.29933767 16.07632995 119.29347735 18.91265053 119.28672791 21.7492218 C119.28807432 23.71455432 119.29001465 25.67988652 119.29252625 27.6452179 C119.29547863 31.76780869 119.29117619 35.89031293 119.28184509 40.01289368 C119.27045051 45.3060851 119.27700937 50.59907372 119.28899002 55.89225769 C119.29620553 59.95163002 119.29392211 64.010954 119.28873444 68.07032776 C119.28739708 70.02243575 119.28904863 71.97454808 119.29369354 73.926651 C119.29875371 76.65148095 119.29105578 79.37597916 119.27989197 82.1007843 C119.28394043 82.91331665 119.28798889 83.725849 119.29216003 84.56300354 C119.24963104 90.14569367 119.24963104 90.14569367 117.02110291 92.3742218 C114.57868958 92.61473083 114.57868958 92.61473083 111.46983337 92.60127258 C109.72825455 92.60104599 109.72825455 92.60104599 107.95149231 92.60081482 C106.69313568 92.59049225 105.43477905 92.58016968 104.13829041 92.5695343 C102.85374969 92.56670441 101.56920898 92.56387451 100.2457428 92.56095886 C96.82947524 92.55331989 93.41337754 92.53366933 89.99717712 92.5115509 C86.51168618 92.49109805 83.0261678 92.48195836 79.54063416 92.47187805 C72.7007206 92.45042355 65.8609199 92.41628452 59.02110291 92.3742218 C59.51610291 96.3342218 59.51610291 96.3342218 60.02110291 100.3742218 C60.70623962 100.45462708 61.39137634 100.53503235 62.09727478 100.61787415 C65.23920693 100.98966591 68.38013377 101.36938367 71.52110291 101.7492218 C72.59875916 101.87554993 73.67641541 102.00187805 74.78672791 102.1320343 C90.72227478 104.07539368 90.72227478 104.07539368 94.02110291 107.3742218 C94.02110291 109.0242218 94.02110291 110.6742218 94.02110291 112.3742218 C67.95110291 112.3742218 41.88110291 112.3742218 15.02110291 112.3742218 C15.02110291 107.3742218 15.02110291 107.3742218 16.45469666 105.6632843 C20.20489115 103.77962497 23.95249092 103.31677272 28.08360291 102.7492218 C28.92963074 102.62442444 29.77565857 102.49962708 30.64732361 102.37104797 C36.75277324 101.49133552 42.86399234 100.7754717 49.02110291 100.3742218 C49.35110291 97.7342218 49.68110291 95.0942218 50.02110291 92.3742218 C49.32397186 92.38088364 48.62684082 92.38754547 47.90858459 92.39440918 C41.34585083 92.45446536 34.7831935 92.50016801 28.22024727 92.52965832 C24.84596684 92.54532924 21.47191304 92.56659273 18.09776306 92.60054016 C14.22058543 92.6367954 10.34373119 92.65391908 6.46641541 92.66719055 C5.25180634 92.68267441 4.03719727 92.69815826 2.78578186 92.71411133 C1.66477081 92.71433792 0.54375977 92.71456451 -0.61122131 92.71479797 C-1.60161407 92.72145981 -2.59200684 92.72812164 -3.6124115 92.73498535 C-4.39335175 92.61593338 -5.17429199 92.49688141 -5.97889709 92.3742218 C-8.50253193 88.58876955 -8.26733063 85.57198142 -8.2535553 81.1867218 C-8.25866623 80.35229553 -8.26377716 79.51786926 -8.26904297 78.65815735 C-8.28295638 75.89677279 -8.28198108 73.13563727 -8.27967834 70.3742218 C-8.28356395 68.45755419 -8.28789833 66.54088743 -8.29266357 64.6242218 C-8.30012928 60.60596424 -8.2998317 56.58779454 -8.29457092 52.5695343 C-8.28877188 47.41428426 -8.3057161 42.25939297 -8.3289156 37.10420227 C-8.34362914 33.14601023 -8.34452796 29.1879051 -8.34140587 25.22969055 C-8.34192015 23.32864165 -8.34717784 21.42758801 -8.35721779 19.52656555 C-8.36952065 16.87137854 -8.3628281 14.21689707 -8.35121155 11.5617218 C-8.35885529 10.77305725 -8.36649902 9.9843927 -8.37437439 9.17182922 C-8.32284175 3.85712385 -8.32284175 3.85712385 -6.7666893 1.67226887 C-4.39482655 -0.04984933 -2.91918406 -0.00054754 0 0 Z M-5.97889709 3.3742218 C-6.07395908 5.93015996 -6.10445163 8.45886486 -6.09242249 11.01509094 C-6.09254302 11.8280107 -6.09266356 12.64093046 -6.09278774 13.47848415 C-6.09203856 16.12214284 -6.08441012 18.7657319 -6.07655334 21.40937805 C-6.07508394 23.03661566 -6.07406322 24.66385374 -6.07350159 26.29109192 C-6.06824852 32.3396424 -6.05428744 38.38818278 -6.04139709 44.4367218 C-6.02077209 57.9460968 -6.00014709 71.4554718 -5.97889709 85.3742218 C34.94110291 85.3742218 75.86110291 85.3742218 118.02110291 85.3742218 C118.04172791 71.8648468 118.06235291 58.3554718 118.08360291 44.4367218 C118.09270691 40.16484924 118.10181091 35.89297668 118.1111908 31.49165344 C118.11453441 27.67560618 118.11453441 27.67560618 118.11654663 23.85955811 C118.11808622 22.1545994 118.12161144 20.44964181 118.12667847 18.74468994 C118.13395566 16.16813758 118.13501033 13.59165198 118.1346283 11.01509094 C118.14002546 9.86817953 118.14002546 9.86817953 118.14553165 8.69809818 C118.45213653 5.24675739 118.45213653 5.24675739 117.02110291 2.3742218 C114.28216206 2.28563534 111.5685702 2.25898701 108.82969666 2.27656555 C107.59993858 2.27868797 107.59993858 2.27868797 106.34533691 2.28085327 C103.71638908 2.28646891 101.08752517 2.29902401 98.45860291 2.3117218 C96.68060934 2.31673479 94.90261445 2.32129804 93.12461853 2.32539368 C88.75674745 2.33644342 84.38893943 2.35371849 80.02110291 2.3742218 C79.99406909 4.31164521 79.97469166 6.24917659 79.95860291 8.1867218 C79.94700134 9.26566711 79.93539978 10.34461243 79.92344666 11.45625305 C79.88485524 14.43934349 79.88485524 14.43934349 81.02110291 17.3742218 C80.38839424 18.72400029 79.72047822 20.05775061 79.02110291 21.3742218 C78.85589248 24.31410617 78.85589248 24.31410617 79.83750916 26.70625305 C80.02110291 29.3742218 80.02110291 29.3742218 77.92344666 32.19844055 C76.95061873 33.1686141 75.96151938 34.12268536 74.95860291 35.0617218 C74.47971619 35.54705383 74.00082947 36.03238586 73.50743103 36.53242493 C70.20863125 39.7340713 67.35539728 41.04751951 63.02110291 42.3742218 C61.27849472 43.8187498 61.27849472 43.8187498 59.95860291 45.4992218 C57.35380167 48.33082631 57.35380167 48.33082631 54.14610291 48.7492218 C53.09422791 48.5635968 53.09422791 48.5635968 52.02110291 48.3742218 C54.00110291 45.8992218 54.00110291 45.8992218 56.02110291 43.3742218 C52.83620284 43.0968717 52.83620284 43.0968717 50.02110291 45.3742218 C50.35110291 44.0542218 50.68110291 42.7342218 51.02110291 41.3742218 C50.36110291 41.3742218 49.70110291 41.3742218 49.02110291 41.3742218 C49.02110291 40.7142218 49.02110291 40.0542218 49.02110291 39.3742218 C48.36110291 39.3742218 47.70110291 39.3742218 47.02110291 39.3742218 C46.69110291 38.7142218 46.36110291 38.0542218 46.02110291 37.3742218 C45.03110291 38.0342218 44.04110291 38.6942218 43.02110291 39.3742218 C43.02110291 37.3942218 43.02110291 35.4142218 43.02110291 33.3742218 C41.37110291 34.6942218 39.72110291 36.0142218 38.02110291 37.3742218 C39.14562018 34.4022833 40.24404082 32.03981493 42.02110291 29.3742218 C41.36110291 28.7142218 40.70110291 28.0542218 40.02110291 27.3742218 C39.40235291 28.1785968 38.78360291 28.9829718 38.14610291 29.8117218 C36.02110291 32.3742218 36.02110291 32.3742218 34.02110291 33.3742218 C33.52610291 31.8892218 33.52610291 31.8892218 33.02110291 30.3742218 C33.68110291 30.3742218 34.34110291 30.3742218 35.02110291 30.3742218 C36.40342734 28.74795776 37.74047806 27.0817216 39.02110291 25.3742218 C38.52610291 24.3842218 38.52610291 24.3842218 38.02110291 23.3742218 C36.70110291 24.3642218 35.38110291 25.3542218 34.02110291 26.3742218 C36.33110291 24.0642218 38.64110291 21.7542218 41.02110291 19.3742218 C40.52610291 17.8892218 40.52610291 17.8892218 40.02110291 16.3742218 C39.03110291 17.0342218 38.04110291 17.6942218 37.02110291 18.3742218 C40.53239739 14.18721429 44.15505877 10.24026594 48.02110291 6.3742218 C49.0353072 5.05166086 50.03795505 3.72002939 51.02110291 2.3742218 C43.73688742 2.35109265 36.45267981 2.33330379 29.1684351 2.32240963 C25.78638478 2.31718205 22.40435951 2.31008669 19.02232361 2.29878235 C15.13780513 2.28587913 11.25329694 2.28099256 7.36875916 2.27656555 C5.53910362 2.26882362 5.53910362 2.26882362 3.67248535 2.26092529 C2.55139877 2.26084976 1.43031219 2.26077423 0.2752533 2.26069641 C-0.71736008 2.2584758 -1.70997345 2.25625519 -2.73266602 2.25396729 C-4.94916234 2.12172238 -4.94916234 2.12172238 -5.97889709 3.3742218 Z M79.02110291 14.3742218 C80.02110291 16.3742218 80.02110291 16.3742218 80.02110291 16.3742218 Z M44.02110291 31.3742218 C43.69110291 32.0342218 43.36110291 32.6942218 43.02110291 33.3742218 C43.68110291 33.3742218 44.34110291 33.3742218 45.02110291 33.3742218 C44.69110291 32.7142218 44.36110291 32.0542218 44.02110291 31.3742218 Z " fill="#6C181F" transform="translate(87.97889709472656,56.62577819824219)"/>
<path d="M0 0 C0.06058594 0.74765625 0.12117188 1.4953125 0.18359375 2.265625 C0.26738281 3.25046875 0.35117188 4.2353125 0.4375 5.25 C0.51871094 6.22453125 0.59992188 7.1990625 0.68359375 8.203125 C0.92256681 10.92892038 0.92256681 10.92892038 1.59375 13.23046875 C2.16071209 15.70002479 1.18908622 16.8316663 0 19 C-0.17285268 21.9394887 -0.17285268 21.9394887 0.84765625 24.30078125 C1 27 1 27 -1.31640625 30.04296875 C-2.38297231 31.10687836 -3.46582233 32.15465688 -4.5625 33.1875 C-5.35237305 33.98704102 -5.35237305 33.98704102 -6.15820312 34.80273438 C-9.59121962 38.14330734 -12.35176099 39.61139564 -17 41 C-18.70867328 42.44624754 -18.70867328 42.44624754 -20 44.125 C-22.36006053 46.69734111 -22.67927233 46.96436359 -26.375 47.375 C-27.24125 47.25125 -28.1075 47.1275 -29 47 C-27.68 45.02 -26.36 43.04 -25 41 C-26.65 42.32 -28.3 43.64 -30 45 C-30.66 44.67 -31.32 44.34 -32 44 C-31.649375 43.401875 -31.29875 42.80375 -30.9375 42.1875 C-29.66695302 39.89186786 -29.66695302 39.89186786 -31 37 C-32.32 37 -33.64 37 -35 37 C-35.66 37 -36.32 37 -37 37 C-37.33 35.35 -37.66 33.7 -38 32 C-39.65 33.32 -41.3 34.64 -43 36 C-42.46930939 32.17902761 -41.50298434 29.93828597 -39 27 C-41.36278736 26.77011494 -41.36278736 26.77011494 -43.625 29.5 C-44.800625 30.7375 -44.800625 30.7375 -46 32 C-46.33 30.68 -46.66 29.36 -47 28 C-46.34 28 -45.68 28 -45 28 C-44.34 26.68 -43.68 25.36 -43 24 C-44.46225016 23.90754997 -44.46225016 23.90754997 -47 26 C-45.43586569 22.16076124 -42.90063768 19.90063768 -40 17 C-38.99368293 15.33713989 -37.99473299 13.66981557 -37 12 C-27.56692845 -2.40260159 -16.13189811 -1.45973092 0 0 Z M-1 12 C0 14 0 14 0 14 Z M-36 29 C-36.33 29.66 -36.66 30.32 -37 31 C-36.34 31 -35.68 31 -35 31 C-35.33 30.34 -35.66 29.68 -36 29 Z " fill="#A42FB9" transform="translate(168,59)"/>
<path d="M0 0 C15.74188837 -0.04667656 31.48375812 -0.08196748 47.22569847 -0.10362434 C54.53460373 -0.11394632 61.84346605 -0.12802417 69.15234375 -0.15087891 C75.5211746 -0.17078467 81.88997435 -0.18370973 88.25883543 -0.18817699 C91.6325405 -0.19078916 95.00615661 -0.19694785 98.37983322 -0.21146011 C102.14178587 -0.22589009 105.90355167 -0.22798151 109.66552734 -0.22705078 C110.78977615 -0.23424133 111.91402496 -0.24143188 113.07234192 -0.24884033 C114.09320389 -0.246091 115.11406586 -0.24334167 116.16586304 -0.24050903 C117.05631506 -0.24235262 117.94676708 -0.24419621 118.8642025 -0.24609566 C121 0 121 0 123 2 C123.19863343 4.79051091 123.27269851 7.48179048 123.25878906 10.2734375 C123.2622937 11.12883118 123.26579834 11.98422485 123.26940918 12.86553955 C123.27823477 15.70210814 123.27237445 18.53842873 123.265625 21.375 C123.26697141 23.34033252 123.26891174 25.30566472 123.27142334 27.27099609 C123.27437572 31.39358689 123.27007328 35.51609113 123.26074219 39.63867188 C123.2493476 44.9318633 123.25590646 50.22485191 123.26788712 55.51803589 C123.27510263 59.57740822 123.27281921 63.6367322 123.26763153 67.69610596 C123.26629418 69.64821395 123.26794573 71.60032628 123.27259064 73.5524292 C123.2776508 76.27725915 123.26995288 79.00175736 123.25878906 81.7265625 C123.26283752 82.53909485 123.26688599 83.3516272 123.27105713 84.18878174 C123.22852813 89.77147187 123.22852813 89.77147187 121 92 C118.82815552 92.24723816 118.82815552 92.24723816 116.09814453 92.24291992 C115.07592804 92.24599655 114.05371155 92.24907318 113.0005188 92.25224304 C111.88917572 92.24505753 110.77783264 92.23787201 109.6328125 92.23046875 C107.9151619 92.22978142 107.9151619 92.22978142 106.16281128 92.2290802 C103.72994964 92.22605253 101.29709003 92.218151 98.86425781 92.20581055 C95.17505864 92.18774513 91.48611345 92.18529961 87.796875 92.18554688 C85.42968537 92.18062396 83.06249742 92.1747923 80.6953125 92.16796875 C79.60421173 92.16685593 78.51311096 92.1657431 77.38894653 92.16459656 C70.21648015 92.12117089 63.13826437 91.69736836 56 91 C56 90.67 56 90.34 56 90 C57.98 90 59.96 90 62 90 C62 89.01 62 88.02 62 87 C60.02 87 58.04 87 56 87 C56 86.34 56 85.68 56 85 C77.78 85 99.56 85 122 85 C121.67 57.94 121.34 30.88 121 3 C105.9025 2.505 105.9025 2.505 90.5 2 C87.35662109 1.85433594 84.21324219 1.70867188 80.97460938 1.55859375 C64.25300856 0.86967842 64.25300856 0.86967842 50.0592041 8.79516602 C47.08882031 12.0168833 44.40386147 15.33524283 42 19 C41.34 18.34 40.68 17.68 40 17 C41.11878383 15.82737096 42.24523051 14.66204862 43.375 13.5 C44.00148437 12.8503125 44.62796875 12.200625 45.2734375 11.53125 C47 10 47 10 49 10 C49.268125 9.401875 49.53625 8.80375 49.8125 8.1875 C51 6 51 6 54 3 C36.18 2.34 18.36 1.68 0 1 C0 0.67 0 0.34 0 0 Z " fill="#9E125C" transform="translate(84,57)"/>
<path d="M0 0 C0.93779297 0.05478516 1.87558594 0.10957031 2.84179688 0.16601562 C3.81826172 0.23884766 4.79472656 0.31167969 5.80078125 0.38671875 C7.28288086 0.47856445 7.28288086 0.47856445 8.79492188 0.57226562 C11.23564244 0.72554759 13.67447214 0.89339029 16.11328125 1.07421875 C16.11328125 1.40421875 16.11328125 1.73421875 16.11328125 2.07421875 C5.71828125 2.56921875 5.71828125 2.56921875 -4.88671875 3.07421875 C-5.21671875 30.13421875 -5.54671875 57.19421875 -5.88671875 85.07421875 C13.25328125 85.07421875 32.39328125 85.07421875 52.11328125 85.07421875 C52.11328125 85.73421875 52.11328125 86.39421875 52.11328125 87.07421875 C54.09328125 87.07421875 56.07328125 87.07421875 58.11328125 87.07421875 C58.11328125 88.06421875 58.11328125 89.05421875 58.11328125 90.07421875 C60.09328125 90.40421875 62.07328125 90.73421875 64.11328125 91.07421875 C64.11328125 91.40421875 64.11328125 91.73421875 64.11328125 92.07421875 C62.46328125 92.07421875 60.81328125 92.07421875 59.11328125 92.07421875 C59.11328125 94.38421875 59.11328125 96.69421875 59.11328125 99.07421875 C58.78328125 99.07421875 58.45328125 99.07421875 58.11328125 99.07421875 C58.11328125 96.76421875 58.11328125 94.45421875 58.11328125 92.07421875 C55.80328125 92.07421875 53.49328125 92.07421875 51.11328125 92.07421875 C51.11328125 94.38421875 51.11328125 96.69421875 51.11328125 99.07421875 C50.78328125 99.07421875 50.45328125 99.07421875 50.11328125 99.07421875 C50.11328125 96.76421875 50.11328125 94.45421875 50.11328125 92.07421875 C49.41615021 92.08088058 48.71901917 92.08754242 48.00076294 92.09440613 C41.43802918 92.15446231 34.87537185 92.20016496 28.31242561 92.22965527 C24.93814519 92.24532619 21.56409138 92.26658968 18.18994141 92.30053711 C14.31276377 92.33679235 10.43590953 92.35391603 6.55859375 92.3671875 C5.34398468 92.38267136 4.12937561 92.39815521 2.87796021 92.41410828 C1.75694916 92.41433487 0.63593811 92.41456146 -0.51904297 92.41479492 C-1.50943573 92.42145676 -2.49982849 92.42811859 -3.52023315 92.4349823 C-4.3011734 92.31593033 -5.08211365 92.19687836 -5.88671875 92.07421875 C-8.41035358 88.2887665 -8.17515229 85.27197837 -8.16137695 80.88671875 C-8.16648788 80.05229248 -8.17159882 79.21786621 -8.17686462 78.3581543 C-8.19077804 75.59676973 -8.18980273 72.83563422 -8.1875 70.07421875 C-8.1913856 68.15755113 -8.19571999 66.24088438 -8.20048523 64.32421875 C-8.20795093 60.30596119 -8.20765335 56.28779149 -8.20239258 52.26953125 C-8.19659353 47.11428121 -8.21353775 41.95938992 -8.23673725 36.80419922 C-8.25145079 32.84600717 -8.25234961 28.88790204 -8.24922752 24.9296875 C-8.24974181 23.0286386 -8.2549995 21.12758496 -8.26503944 19.2265625 C-8.27734231 16.57137549 -8.27064976 13.91689402 -8.2590332 11.26171875 C-8.26667694 10.4730542 -8.27432068 9.68438965 -8.28219604 8.87182617 C-8.23080181 3.57139441 -8.23080181 3.57139441 -6.50521851 1.07804871 C-4.22461974 -0.33642995 -2.66125598 -0.17741707 0 0 Z " fill="#78257E" transform="translate(87.88671875,56.92578125)"/>
<path d="M0 0 C2 2 2 2 2 5 C3.98 4.67 5.96 4.34 8 4 C8.42133626 11.75570825 7.96734998 16.97288217 3.25 23.375 C0.23784547 25.55044494 -2.34214877 25.66746807 -6 26 C-6.99 26.33 -7.98 26.66 -9 27 C-9.66 25.35 -10.32 23.7 -11 22 C-12.32 22 -13.64 22 -15 22 C-16.875 19.875 -16.875 19.875 -18 17 C-16.8971205 12.03704226 -14.81354531 9.245646 -11.25 5.6875 C-9.98929688 4.39392578 -9.98929688 4.39392578 -8.703125 3.07421875 C-5.66856972 0.74567995 -3.80227313 0.11151918 0 0 Z " fill="#BD379D" transform="translate(150,67)"/>
<path d="M0 0 C0.34684009 5.28931132 0.34684009 5.28931132 0 8 C-1.8125 10.0625 -1.8125 10.0625 -4 11 C-7 10 -7 10 -8 9 C-14.93612936 10.15602156 -18.58062502 13.65953423 -23 19 C-24.40223001 21.13776668 -25.69282519 23.27533971 -26.89453125 25.53125 C-27.25933594 26.0159375 -27.62414062 26.500625 -28 27 C-28.99 27 -29.98 27 -31 27 C-33.68767578 29.43750025 -33.68767578 29.43750025 -36 32 C-36.33 30.68 -36.66 29.36 -37 28 C-36.34 28 -35.68 28 -35 28 C-34.34 26.68 -33.68 25.36 -33 24 C-34.46225016 23.90754997 -34.46225016 23.90754997 -37 26 C-35.43586569 22.16076124 -32.90063768 19.90063768 -30 17 C-29.56042969 16.25234375 -29.12085938 15.5046875 -28.66796875 14.734375 C-21.24986127 2.57354306 -14.17263577 -2.09104462 0 0 Z " fill="#9C235E" transform="translate(158,59)"/>
<path d="M0 0 C15.74188837 -0.04667656 31.48375812 -0.08196748 47.22569847 -0.10362434 C54.53460373 -0.11394632 61.84346605 -0.12802417 69.15234375 -0.15087891 C75.5211746 -0.17078467 81.88997435 -0.18370973 88.25883543 -0.18817699 C91.6325405 -0.19078916 95.00615661 -0.19694785 98.37983322 -0.21146011 C102.14178587 -0.22589009 105.90355167 -0.22798151 109.66552734 -0.22705078 C110.78977615 -0.23424133 111.91402496 -0.24143188 113.07234192 -0.24884033 C114.09320389 -0.246091 115.11406586 -0.24334167 116.16586304 -0.24050903 C117.05631506 -0.24235262 117.94676708 -0.24419621 118.8642025 -0.24609566 C121 0 121 0 123 2 C123.24050903 4.67019653 123.24050903 4.67019653 123.22705078 8.10205078 C123.22689972 9.38322784 123.22674866 10.66440491 123.22659302 11.98440552 C123.21637895 13.38804274 123.20594695 14.7916784 123.1953125 16.1953125 C123.19158291 17.62734785 123.18873569 19.05938575 123.18673706 20.49142456 C123.17909627 24.26278717 123.15944408 28.03399604 123.1373291 31.80529785 C123.11688019 35.65272949 123.1077374 39.50018594 123.09765625 43.34765625 C123.0761985 50.89850764 123.04205732 58.44923229 123 66 C122.67 66 122.34 66 122 66 C121.67 45.21 121.34 24.42 121 3 C105.9025 2.505 105.9025 2.505 90.5 2 C87.35662109 1.85433594 84.21324219 1.70867188 80.97460938 1.55859375 C64.25300856 0.86967842 64.25300856 0.86967842 50.0592041 8.79516602 C47.08882031 12.0168833 44.40386147 15.33524283 42 19 C41.34 18.34 40.68 17.68 40 17 C41.11878383 15.82737096 42.24523051 14.66204862 43.375 13.5 C44.00148437 12.8503125 44.62796875 12.200625 45.2734375 11.53125 C47 10 47 10 49 10 C49.268125 9.401875 49.53625 8.80375 49.8125 8.1875 C51 6 51 6 54 3 C36.18 2.34 18.36 1.68 0 1 C0 0.67 0 0.34 0 0 Z " fill="#B91D35" transform="translate(84,57)"/>
<path d="M0 0 C2.31 0 4.62 0 7 0 C7.144375 1.134375 7.28875 2.26875 7.4375 3.4375 C7.61171478 6.80777201 7.61171478 6.80777201 9 8 C10.68187706 8.27434342 12.37316645 8.49146427 14.06640625 8.68359375 C15.63165039 8.86825195 15.63165039 8.86825195 17.22851562 9.05664062 C19.42374001 9.30741318 21.61905056 9.55743277 23.81445312 9.80664062 C29.69572199 10.50173241 35.29490529 11.40257348 41 13 C41 13.99 41 14.98 41 16 C38.47869342 17.26065329 37.40701504 16.89479845 34.64453125 16.44140625 C17.65174517 13.8731106 1.1365181 13.66901535 -16 14 C-16 12.68 -16 11.36 -16 10 C-12.14549212 8.71516404 -8.43475861 8.57788252 -4.3984375 8.28125 C-2.05049709 8.25714407 -2.05049709 8.25714407 -1 7 C-0.63239269 4.67182036 -0.29758419 2.3381615 0 0 Z " fill="#8E1E21" transform="translate(139,149)"/>
<path d="M0 0 C3.3 0 6.6 0 10 0 C10.06058594 0.74765625 10.12117188 1.4953125 10.18359375 2.265625 C10.30927734 3.74289063 10.30927734 3.74289063 10.4375 5.25 C10.51871094 6.22453125 10.59992188 7.1990625 10.68359375 8.203125 C10.92256681 10.92892038 10.92256681 10.92892038 11.59375 13.23046875 C12.16071209 15.70002479 11.18908622 16.8316663 10 19 C9.82714732 21.9394887 9.82714732 21.9394887 10.84765625 24.30078125 C11 27 11 27 8.68359375 30.04296875 C7.61702769 31.10687836 6.53417767 32.15465688 5.4375 33.1875 C4.91091797 33.72052734 4.38433594 34.25355469 3.84179688 34.80273438 C0.41021036 38.14191587 -2.34937375 39.62227623 -7 41 C-8.91179294 42.43641374 -8.91179294 42.43641374 -10.375 44.125 C-11.24125 45.07375 -12.1075 46.0225 -13 47 C-13.99 46.67 -14.98 46.34 -16 46 C-11.73631442 41.64748764 -7.54883257 37.38896982 -2.75 33.625 C1.85443905 29.62154195 4.55400551 24.92938524 6 19 C5.82580778 15.46907658 5.13756573 12.34024079 4 9 C2.68 9 1.36 9 0 9 C-1.15941038 5.52176885 -0.70820884 3.54104422 0 0 Z M9 12 C10 14 10 14 10 14 Z " fill="#98278F" transform="translate(158,59)"/>
<path d="M0 0 C0.42133626 7.75570825 -0.03265002 12.97288217 -4.75 19.375 C-7.76215453 21.55044494 -10.34214877 21.66746807 -14 22 C-14.99 22.33 -15.98 22.66 -17 23 C-17.96808377 20.02128071 -18.38345651 17.89759776 -17.12890625 14.9609375 C-13.91582293 9.61580823 -10.16753363 6.44502242 -5 3 C-4.2265625 2.195625 -4.2265625 2.195625 -3.4375 1.375 C-2 0 -2 0 0 0 Z " fill="#B233CE" transform="translate(158,71)"/>
<path d="M0 0 C0.34684009 5.28931132 0.34684009 5.28931132 0 8 C-1.8125 10.0625 -1.8125 10.0625 -4 11 C-7 10 -7 10 -8 9 C-14.94820432 10.15803405 -18.56013727 13.66844936 -23 19 C-24.81810702 21.59102208 -26.46813599 24.23086122 -28 27 C-28 19.59291106 -24.19580294 15.08595105 -19.1875 10 C-17.79581566 8.66233668 -16.40007196 7.32888186 -15 6 C-14.40832031 5.3915625 -13.81664062 4.783125 -13.20703125 4.15625 C-8.80883409 -0.11110834 -6.08603264 -0.64063502 0 0 Z " fill="#B3347B" transform="translate(158,59)"/>
<path d="M0 0 C3.3 0 6.6 0 10 0 C10.13504138 1.93559313 10.23201129 3.873872 10.3125 5.8125 C10.39951172 7.43091797 10.39951172 7.43091797 10.48828125 9.08203125 C10 12 10 12 7.48046875 13.88671875 C6.66191406 14.25410156 5.84335938 14.62148437 5 15 C4.67 13.02 4.34 11.04 4 9 C2.68 9 1.36 9 0 9 C-1.15941038 5.52176885 -0.70820884 3.54104422 0 0 Z " fill="#832798" transform="translate(158,59)"/>
<path d="M0 0 C0 0.66 0 1.32 0 2 C0.66 2 1.32 2 2 2 C2.48209366 8.26721763 2.48209366 8.26721763 0.4375 11.375 C-2.6785229 13.4523486 -5.30463414 13.71574109 -9 14 C-9.36329537 10.98983839 -9.61162751 8.91699272 -9 6 C-6.70950008 3.12635443 -3.84141905 0 0 0 Z " fill="#C238DD" transform="translate(152,76)"/>
<path d="M0 0 C0.33 0.99 0.66 1.98 1 3 C-1.31399023 5.31399023 -1.98604724 5.32256804 -5.1328125 5.6328125 C-5.93847656 5.71660156 -6.74414062 5.80039063 -7.57421875 5.88671875 C-8.41597656 5.96535156 -9.25773437 6.04398438 -10.125 6.125 C-10.97449219 6.21136719 -11.82398437 6.29773438 -12.69921875 6.38671875 C-14.79869727 6.59902557 -16.89926242 6.80053603 -19 7 C-18.67 7.99 -18.34 8.98 -18 10 C-18.66 10 -19.32 10 -20 10 C-20.25 7.6875 -20.25 7.6875 -20 5 C-16.94847147 2.035658 -14.13971263 1.41793297 -10 0.8125 C-8.96875 0.65394531 -7.9375 0.49539062 -6.875 0.33203125 C-4 0 -4 0 0 0 Z " fill="#671E4C" transform="translate(123,159)"/>
<path d="M0 0 C0.66 0.33 1.32 0.66 2 1 C1.54149658 1.40726318 1.08299316 1.81452637 0.6105957 2.23413086 C-1.5005283 4.12255459 -3.59385954 6.02971796 -5.6875 7.9375 C-6.7693457 8.8975293 -6.7693457 8.8975293 -7.87304688 9.87695312 C-12.22950201 13.87534346 -15.30646263 17.66661123 -17.94213867 22.97290039 C-20.08644302 27.08186854 -22.4995791 30.4998597 -27 32 C-27 30.68 -27 29.36 -27 28 C-26.34 28 -25.68 28 -25 28 C-24.77570313 27.46890625 -24.55140625 26.9378125 -24.3203125 26.390625 C-22.55069431 23.18646426 -20.24870344 20.51430271 -17.875 17.75 C-17.38507568 17.17588379 -16.89515137 16.60176758 -16.39038086 16.01025391 C-11.36468204 10.17496397 -6.25560025 4.53702875 0 0 Z " fill="#AA2D6A" transform="translate(148,59)"/>
<path d="M0 0 C2.31 0 4.62 0 7 0 C7.103125 1.093125 7.20625 2.18625 7.3125 3.3125 C7.68753577 7.25306412 7.68753577 7.25306412 11 10 C6.05 10 1.1 10 -4 10 C-3.01 9.01 -2.02 8.02 -1 7 C-0.26958147 3.38976901 -0.26958147 3.38976901 0 0 Z " fill="#70191C" transform="translate(139,149)"/>
<path d="M0 0 C-0.125 1.8125 -0.125 1.8125 -1 4 C-2.99107248 5.01765927 -4.99218823 6.01577854 -7 7 C-9.27769352 9.47292439 -10.95919532 11.93199219 -12.6875 14.8125 C-13.120625 15.534375 -13.55375 16.25625 -14 17 C-14.33 17 -14.66 17 -15 17 C-15.32615385 8.68307692 -15.32615385 8.68307692 -13 5 C-9.04631053 1.77485556 -5.28606188 -0.82594717 0 0 Z " fill="#C038C0" transform="translate(154,72)"/>
<path d="M0 0 C5.852795 0.51482919 11.3297637 1.45357192 17 3 C17 3.99 17 4.98 17 6 C13.9089719 7.54551405 10.88054565 6.68699566 7.5625 6.25 C6.5405957 6.13785156 6.5405957 6.13785156 5.49804688 6.0234375 C2.50995235 5.63712166 0.41207678 5.32966142 -1.97265625 3.421875 C-2.31167969 2.95265625 -2.65070313 2.4834375 -3 2 C-2.01 2 -1.02 2 0 2 C0 1.34 0 0.68 0 0 Z " fill="#8B2A1C" transform="translate(163,159)"/>
<path d="M0 0 C1.21236328 0.01353516 1.21236328 0.01353516 2.44921875 0.02734375 C3.37154297 0.04474609 3.37154297 0.04474609 4.3125 0.0625 C4.6425 0.7225 4.9725 1.3825 5.3125 2.0625 C8.35831269 2.53204261 8.35831269 2.53204261 11.875 2.6875 C13.07253906 2.76226562 14.27007812 2.83703125 15.50390625 2.9140625 C16.43074219 2.96304688 17.35757813 3.01203125 18.3125 3.0625 C18.3125 3.3925 18.3125 3.7225 18.3125 4.0625 C9.7325 4.3925 1.1525 4.7225 -7.6875 5.0625 C-7.6875 3.7425 -7.6875 2.4225 -7.6875 1.0625 C-4.80538698 0.10179566 -2.98899956 -0.04331883 0 0 Z " fill="#7F2332" transform="translate(130.6875,157.9375)"/>
<path d="M0 0 C0.66 0.33 1.32 0.66 2 1 C0.35 2.65 -1.3 4.3 -3 6 C-3.66 5.67 -4.32 5.34 -5 5 C-3.35 3.35 -1.7 1.7 0 0 Z M-7 6 C-6.34 6.33 -5.68 6.66 -5 7 C-6.1446875 8.0828125 -6.1446875 8.0828125 -7.3125 9.1875 C-9.76272022 11.75168396 -11.21945466 13.97307292 -13 17 C-14.21425994 18.78108792 -15.44346828 20.55207776 -16.6875 22.3125 C-17.31011719 23.19550781 -17.93273437 24.07851562 -18.57421875 24.98828125 C-19.27998047 25.98408203 -19.27998047 25.98408203 -20 27 C-20 19.34425181 -15.94674029 14.83093806 -10.75 9.625 C-9.50485454 8.41166483 -8.25648423 7.20158929 -7 6 Z " fill="#B43374" transform="translate(150,59)"/>
<path d="M0 0 C0.99 0.33 1.98 0.66 3 1 C3.25 8.625 3.25 8.625 1 12 C0.34 12 -0.32 12 -1 12 C-1.33 10.35 -1.66 8.7 -2 7 C-3.65 8.32 -5.3 9.64 -7 11 C-6.68232368 5.59950264 -3.80003673 3.47662935 0 0 Z M0 4 C-0.33 4.66 -0.66 5.32 -1 6 C-0.34 6 0.32 6 1 6 C0.67 5.34 0.34 4.68 0 4 Z " fill="#A53181" transform="translate(132,84)"/>
<path d="M0 0 C2.01822917 0.06510417 4.03645833 0.13020833 6.0546875 0.1953125 C4.64624032 3.41055555 2.95123964 5.51715118 0.4296875 7.9453125 C-0.51777344 8.86570312 -0.51777344 8.86570312 -1.484375 9.8046875 C-1.96648437 10.26359375 -2.44859375 10.7225 -2.9453125 11.1953125 C-3.6053125 10.8653125 -4.2653125 10.5353125 -4.9453125 10.1953125 C-3.6253125 8.5453125 -2.3053125 6.8953125 -0.9453125 5.1953125 C-2.5953125 6.5153125 -4.2453125 7.8353125 -5.9453125 9.1953125 C-6.6053125 8.8653125 -7.2653125 8.5353125 -7.9453125 8.1953125 C-2.78275645 0.27939322 -2.78275645 0.27939322 0 0 Z " fill="#942AA3" transform="translate(143.9453125,94.8046875)"/>
<path d="M0 0 C0.99 0.33 1.98 0.66 3 1 C-2.28 6.28 -7.56 11.56 -13 17 C-13.66 16.34 -14.32 15.68 -15 15 C-13.88121617 13.82737096 -12.75476949 12.66204862 -11.625 11.5 C-10.99851563 10.8503125 -10.37203125 10.200625 -9.7265625 9.53125 C-8 8 -8 8 -6 8 C-5.7525 7.4225 -5.505 6.845 -5.25 6.25 C-3.83316683 3.6997003 -2.12372463 1.98214299 0 0 Z " fill="#8C1751" transform="translate(139,59)"/>
<path d="M0 0 C0.99 0.33 1.98 0.66 3 1 C2.52949219 1.37511719 2.05898437 1.75023438 1.57421875 2.13671875 C-3.00766775 5.90278281 -5.89544333 9.14114743 -8.0625 14.75 C-9 17 -9 17 -11 18 C-11.75 16.375 -11.75 16.375 -12 14 C-9.08154501 8.41686871 -4.51634481 4.31902877 0 0 Z " fill="#BC3686" transform="translate(144,68)"/>
<path d="M0 0 C0.99 0.33 1.98 0.66 3 1 C2.64008282 6.04806914 -0.04398041 8.52239866 -3.5625 11.8125 C-4.08263672 12.31458984 -4.60277344 12.81667969 -5.13867188 13.33398438 C-6.4168857 14.56529127 -7.70727147 15.7839407 -9 17 C-9 12.40637347 -5.94134116 10.52709093 -2.84765625 7.3515625 C-0.85664527 4.81754853 -0.35232828 3.16536204 0 0 Z " fill="#94247C" transform="translate(166,81)"/>
<path d="M0 0 C0.33 0.99 0.66 1.98 1 3 C-1 5 -1 5 -4.625 5.125 C-5.73875 5.08375 -6.8525 5.0425 -8 5 C-8.33 4.34 -8.66 3.68 -9 3 C-9.99 2.34 -10.98 1.68 -12 1 C-7.915021 0.45533613 -4.1274515 0 0 0 Z " fill="#752448" transform="translate(123,159)"/>
<path d="M0 0 C-1.36942568 3.99415824 -3.14305098 6.88332834 -6 10 C-6.99 10.33 -7.98 10.66 -9 11 C-9 9.68 -9 8.36 -9 7 C-8.34 7 -7.68 7 -7 7 C-6.731875 6.401875 -6.46375 5.80375 -6.1875 5.1875 C-3.37142857 0 -3.37142857 0 0 0 Z " fill="#992860" transform="translate(130,80)"/>
<path d="M0 0 C0.66 0.33 1.32 0.66 2 1 C-1.22747358 7.53506176 -3.93079773 12.80936034 -10 17 C-8.50078242 13.8862404 -6.77720586 10.96200977 -5 8 C-4.505 6.9790625 -4.505 6.9790625 -4 5.9375 C-2.87718153 3.76203922 -1.51010973 1.92195784 0 0 Z " fill="#A52BA2" transform="translate(163,78)"/>
<path d="M0 0 C0.75 1.75 0.75 1.75 1 4 C-0.9375 6.25 -0.9375 6.25 -3 8 C-3.99 7.67 -4.98 7.34 -6 7 C-5.25 4.0625 -5.25 4.0625 -4 1 C-1.875 0.125 -1.875 0.125 0 0 Z " fill="#A731A1" transform="translate(157,62)"/>
<path d="M0 0 C2.625 0.375 2.625 0.375 5 1 C5 3.31 5 5.62 5 8 C4.34 8 3.68 8 3 8 C3 7.01 3 6.02 3 5 C1.68 5 0.36 5 -1 5 C-1.33 4.01 -1.66 3.02 -2 2 C-1.34 1.34 -0.68 0.68 0 0 Z " fill="#8F2BA4" transform="translate(159,63)"/>
<path d="M0 0 C0.66 0.33 1.32 0.66 2 1 C0 4 0 4 -3 5 C-4.23277127 6.86022072 -4.23277127 6.86022072 -5.1875 9.0625 C-5.53167969 9.79597656 -5.87585938 10.52945313 -6.23046875 11.28515625 C-6.48441406 11.85105469 -6.73835937 12.41695312 -7 13 C-7.74559884 10.43122153 -8.03753637 9.16682831 -7.4375 6.5 C-5.55713742 3.22980421 -3.21416966 1.88657784 0 0 Z " fill="#C439B0" transform="translate(147,73)"/>
<path d="M0 0 C3.3 0 6.6 0 10 0 C7.57244264 2.42755736 5.10810492 3.57545191 2 5 C1.34 5 0.68 5 0 5 C0 3.35 0 1.7 0 0 Z " fill="#842889" transform="translate(158,59)"/>
<path d="M0 0 C2.16874252 0.50603992 3.99967627 0.99983813 6 2 C6 2.99 6 3.98 6 5 C0.46153846 5.36923077 0.46153846 5.36923077 -1.875 3.5 C-2.24625 3.005 -2.6175 2.51 -3 2 C-2.01 2 -1.02 2 0 2 C0 1.34 0 0.68 0 0 Z " fill="#943023" transform="translate(163,159)"/>
<path d="M0 0 C3.63 0 7.26 0 11 0 C11 0.66 11 1.32 11 2 C7.37 2.33 3.74 2.66 0 3 C0 2.01 0 1.02 0 0 Z " fill="#7E173A" transform="translate(123,160)"/>
<path d="M0 0 C0.99 0 1.98 0 3 0 C2.67 2.31 2.34 4.62 2 7 C1.01 7.33 0.02 7.66 -1 8 C-2.2077558 4.37673261 -1.54311128 3.35853631 0 0 Z " fill="#A731AB" transform="translate(136,88)"/>
<path d="M0 0 C0.66 0.33 1.32 0.66 2 1 C0.02 3.31 -1.96 5.62 -4 8 C-4.66 7.34 -5.32 6.68 -6 6 C-4.02 4.02 -2.04 2.04 0 0 Z " fill="#90226F" transform="translate(167,88)"/>
<path d="M0 0 C0 1.65 0 3.3 0 5 C-3.875 7 -3.875 7 -5 7 C-5.1875 4.625 -5.1875 4.625 -5 2 C-2 0 -2 0 0 0 Z " fill="#C63AF1" transform="translate(152,80)"/>
<path d="M0 0 C0.78375 0.04125 1.5675 0.0825 2.375 0.125 C2.045 1.445 1.715 2.765 1.375 4.125 C-0.275 4.455 -1.925 4.785 -3.625 5.125 C-3.955 4.135 -4.285 3.145 -4.625 2.125 C-2.625 0.125 -2.625 0.125 0 0 Z " fill="#982D7F" transform="translate(155.625,58.875)"/>
<path d="M0 0 C0.66 0.33 1.32 0.66 2 1 C-0.32216997 5.51533049 -2.98560245 8.01055501 -7 11 C-7.66 11 -8.32 11 -9 11 C-8 8 -8 8 -5.625 6.625 C-2.64318197 4.77911265 -1.58216235 3.08105299 0 0 Z " fill="#AB2DAE" transform="translate(157,85)"/>
<path d="M0 0 C1.32 0 2.64 0 4 0 C3.49396008 2.16874252 3.00016187 3.99967627 2 6 C1.34 6 0.68 6 0 6 C-1 3 -1 3 0 0 Z " fill="#9E2F91" transform="translate(131,90)"/>
<path d="M0 0 C2.31 0 4.62 0 7 0 C7 0.99 7 1.98 7 3 C4.69 3 2.38 3 0 3 C0 2.01 0 1.02 0 0 Z " fill="#F9B7C0" transform="translate(139,144)"/>
<path d="M0 0 C0.99 0.33 1.98 0.66 3 1 C1.02 2.98 -0.96 4.96 -3 7 C-3.99 6.67 -4.98 6.34 -6 6 C-4.02 4.02 -2.04 2.04 0 0 Z " fill="#8D268B" transform="translate(148,99)"/>
<path d="M0 0 C0.625 1.875 0.625 1.875 1 4 C0.34 4.66 -0.32 5.32 -1 6 C-3.125 5.625 -3.125 5.625 -5 5 C-3.35 3.35 -1.7 1.7 0 0 Z " fill="#AC3287" transform="translate(151,62)"/>
<path d="M0 0 C0.33 0.99 0.66 1.98 1 3 C0.34 3.66 -0.32 4.32 -1 5 C-2.32 5 -3.64 5 -5 5 C-5 4.34 -5 3.68 -5 3 C-2.5 1.375 -2.5 1.375 0 0 Z " fill="#A732B2" transform="translate(157,67)"/>
<path d="M0 0 C0.33 0.99 0.66 1.98 1 3 C-0.875 4.0625 -0.875 4.0625 -3 5 C-3.66 4.67 -4.32 4.34 -5 4 C-4.67 3.01 -4.34 2.02 -4 1 C-1.9375 0.3125 -1.9375 0.3125 0 0 Z " fill="#9E2F92" transform="translate(157,62)"/>
</svg>